<svg xmlns="http://www.w3.org/2000/svg" width="23.932" height="22.081" viewBox="0 0 23.932 22.081">
  <g id="call" transform="translate(-8.051 -111.346)">
    <path id="Path_8477" data-name="Path 8477" d="M28.161,123.407a2.291,2.291,0,0,0-2.749.377,2.76,2.76,0,0,1-3.544,1.075c-2.543-.949-4.8-4.372-2.99-6.37a4.639,4.639,0,0,1,.662-.569,2.294,2.294,0,0,0,.381-2.753,9.506,9.506,0,0,0-3.532-3.531,2.313,2.313,0,0,0-2.744.379c-5.791,5.619-.876,14.925,5.991,18.653a4.8,4.8,0,0,1-5.772,1.354,2.9,2.9,0,0,0,.932-1.908,2.028,2.028,0,0,0-.892-1.963,1.8,1.8,0,0,0-2.611,1.944,3.186,3.186,0,0,0,.875,1.864,2.99,2.99,0,0,1-.366.1,2.476,2.476,0,0,1-2.846-1.432.479.479,0,1,0-.851.441A3.422,3.422,0,0,0,12,133a3.963,3.963,0,0,0,1-.36,5.132,5.132,0,0,0,1.549.631,5.7,5.7,0,0,0,6.2-2.523.479.479,0,0,0-.193-.683c-6.61-3.289-11.6-12.16-6.241-17.363a1.351,1.351,0,0,1,1.6-.234,8.546,8.546,0,0,1,3.176,3.175,1.333,1.333,0,0,1-.2,1.571c-.093.065-.182.133-.268.2a15.222,15.222,0,0,0-3.207-3.554.479.479,0,1,0-.6.746,14.274,14.274,0,0,1,3.127,3.52c-3.01,4.093,4.787,11.136,8.173,6.309a1.33,1.33,0,0,1,1.572-.2,8.548,8.548,0,0,1,3.174,3.176,1.351,1.351,0,0,1-.234,1.6q-.105.108-.212.21a15.332,15.332,0,0,0-2.85-3.277.479.479,0,1,0-.627.724,14.37,14.37,0,0,1,2.74,3.179,7.6,7.6,0,0,1-6.307,1.221.479.479,0,0,0-.2.937,8.377,8.377,0,0,0,8.145-2.326,2.313,2.313,0,0,0,.379-2.744,9.506,9.506,0,0,0-3.531-3.532Zm-14.322,6.657a2.022,2.022,0,0,1-.8,1.41A2.306,2.306,0,0,1,12.246,130c-.094-.948.69-1.3,1.176-1.02a1.108,1.108,0,0,1,.416,1.083Z" transform="translate(0 0)" fill="#ffc20e"/>
  </g>
</svg>
