<svg xmlns="http://www.w3.org/2000/svg" width="20.931" height="20.452" viewBox="0 0 20.931 20.452">
  <g id="customer-support" transform="translate(-0.643 -1.361)">
    <path id="Path_8478" data-name="Path 8478" d="M20.289,10.22a9.186,9.186,0,0,0-18.36,0A2.161,2.161,0,0,0,.643,12.192v2.424A2.161,2.161,0,0,0,2.8,16.775a1.4,1.4,0,0,0,1.4-1.4V11.43a1.394,1.394,0,0,0-1.26-1.383,8.185,8.185,0,0,1,16.339,0,1.394,1.394,0,0,0-1.258,1.383v3.948A1.393,1.393,0,0,0,19.3,16.762v1A2.04,2.04,0,0,1,17.258,19.8H15.749a1.5,1.5,0,0,0-1.424-1.014H12.77a1.493,1.493,0,0,0-.634.139,1.518,1.518,0,0,0-.881,1.376,1.517,1.517,0,0,0,1.515,1.515h1.555A1.521,1.521,0,0,0,15.75,20.8h1.508A3.042,3.042,0,0,0,20.3,17.76V16.584a2.16,2.16,0,0,0,1.277-1.968V12.192a2.161,2.161,0,0,0-1.285-1.972ZM3.2,11.43v3.948a.4.4,0,0,1-.4.4,1.159,1.159,0,0,1-1.157-1.157V12.192A1.159,1.159,0,0,1,2.8,11.035.4.4,0,0,1,3.2,11.43Zm11.631,8.975a.516.516,0,0,1-.5.407H12.77a.513.513,0,0,1-.213-.981.5.5,0,0,1,.213-.046h1.555a.516.516,0,0,1,.5.62Zm5.745-5.789a1.159,1.159,0,0,1-1.157,1.157.4.4,0,0,1-.4-.4V11.43a.4.4,0,0,1,.4-.4,1.159,1.159,0,0,1,1.157,1.157Z" fill="#ffc20e"/>
    <path id="Path_8479" data-name="Path 8479" d="M24.536,24.494a2.124,2.124,0,0,0,2.121-2.121V18.05a2.124,2.124,0,0,0-2.121-2.121H18.052a2.124,2.124,0,0,0-2.121,2.121v4.322a2.124,2.124,0,0,0,2.121,2.121h.04v1.12a1.04,1.04,0,0,0,1.039,1.043,1.018,1.018,0,0,0,.733-.309l1.863-1.853Zm-3.368-.856-2.017,2.006a.025.025,0,0,1-.035.008.034.034,0,0,1-.023-.038V23.994a.5.5,0,0,0-.5-.5h-.54a1.121,1.121,0,0,1-1.12-1.12V18.05a1.121,1.121,0,0,1,1.12-1.12h6.484a1.122,1.122,0,0,1,1.12,1.12v4.322a1.121,1.121,0,0,1-1.12,1.12H21.521a.5.5,0,0,0-.353.146Z" transform="translate(-10.186 -9.706)" fill="#ffc20e"/>
    <path id="Path_8480" data-name="Path 8480" d="M23.239,26.787a.739.739,0,1,0,.739.739A.74.74,0,0,0,23.239,26.787Z" transform="translate(-14.562 -16.94)" fill="#ffc20e"/>
    <path id="Path_8481" data-name="Path 8481" d="M30.525,26.787a.739.739,0,1,0,.739.739A.74.74,0,0,0,30.525,26.787Z" transform="translate(-19.416 -16.94)" fill="#ffc20e"/>
    <path id="Path_8482" data-name="Path 8482" d="M37.811,26.787a.739.739,0,1,0,.739.739A.74.74,0,0,0,37.811,26.787Z" transform="translate(-24.271 -16.94)" fill="#ffc20e"/>
  </g>
</svg>
