<svg xmlns="http://www.w3.org/2000/svg" width="20.249" height="20.251" viewBox="0 0 20.249 20.251">
  <g id="email" transform="translate(0 0.004)">
    <g id="_015---Email" data-name="015---Email" transform="translate(0 -0.004)">
      <path id="Shape" d="M22.333,19.724a7.463,7.463,0,0,1-2.229-.351,3.371,3.371,0,0,1-2.24-2.553,3.873,3.873,0,0,1,1.27-3.55q.171-.166.355-.319a4.3,4.3,0,0,1,3.917-.845,3.279,3.279,0,0,1,2.28,3.016,3.107,3.107,0,0,1-.726,2.2,1.707,1.707,0,0,1-1.669.613.964.964,0,0,1-.62-.43.916.916,0,0,1-.089-.712c.3-1.116.6-2.811.6-2.828a.338.338,0,1,1,.665.117c-.013.071-.308,1.74-.61,2.883a.244.244,0,0,0,.015.192.3.3,0,0,0,.2.121,1.048,1.048,0,0,0,1.007-.4,2.429,2.429,0,0,0,.56-1.717,2.611,2.611,0,0,0-1.807-2.406,3.612,3.612,0,0,0-3.285.721c-.108.09-.214.184-.315.283a3.246,3.246,0,0,0-1.08,2.929,2.733,2.733,0,0,0,1.784,2.047c1.583.5,3.857.566,5.056-.924a.337.337,0,0,1,.526.423A4.411,4.411,0,0,1,22.333,19.724Z" transform="translate(-11.79 -8.252)" fill="#ffc20e"/>
      <path id="Shape-2" data-name="Shape" d="M24.736,21.3a1.552,1.552,0,0,1-.985-.331,1.909,1.909,0,0,1-.484-2.032,3.092,3.092,0,0,1,.245-.589,2.767,2.767,0,0,1,1.159-1.2,1.6,1.6,0,0,1,1.878.3,2.526,2.526,0,0,1,.538.927.337.337,0,0,1-.636.226,1.883,1.883,0,0,0-.39-.687.914.914,0,0,0-1.091-.163,2.116,2.116,0,0,0-.866.922,2.416,2.416,0,0,0-.19.457,1.257,1.257,0,0,0,.26,1.312,1.207,1.207,0,0,0,1.439-.141,3.764,3.764,0,0,0,.713-.868.337.337,0,1,1,.573.356,4.43,4.43,0,0,1-.844,1.022,2.074,2.074,0,0,1-1.318.489Z" transform="translate(-15.349 -11.572)" fill="#ffc20e"/>
      <path id="Shape-3" data-name="Shape" d="M19.237,33.837H1.012A1.014,1.014,0,0,1,0,32.824V20.337a.337.337,0,0,1,.553-.26L8.834,26.96a2.026,2.026,0,0,0,2.581,0l8.28-6.882a.337.337,0,0,1,.553.26V32.824a1.014,1.014,0,0,1-1.012,1.012ZM.675,21.056V32.824a.338.338,0,0,0,.337.337H19.237a.338.338,0,0,0,.337-.337V21.056l-7.728,6.422a2.7,2.7,0,0,1-3.443,0Z" transform="translate(0 -13.586)" fill="#ffc20e"/>
      <path id="Shape-4" data-name="Shape" d="M.338,16.452a.337.337,0,0,1-.2-.613L3.18,13.686a.337.337,0,0,1,.39.551L.533,16.39a.335.335,0,0,1-.195.062Z" transform="translate(0 -9.363)" fill="#ffc20e"/>
      <path id="Shape-5" data-name="Shape" d="M52.38,16.452a.335.335,0,0,1-.195-.062l-3.037-2.153a.337.337,0,0,1,.39-.551l3.037,2.153a.337.337,0,0,1-.2.613Z" transform="translate(-32.469 -9.363)" fill="#ffc20e"/>
      <path id="Shape-6" data-name="Shape" d="M26.334,3.36a.336.336,0,0,1-.195-.062L24.526,2.153a2.028,2.028,0,0,0-2.6-.016L20.293,3.3a.338.338,0,0,1-.391-.551L21.516,1.6a2.687,2.687,0,0,1,3.421.015L26.53,2.747a.337.337,0,0,1-.2.613Z" transform="translate(-13.091 -0.996)" fill="#ffc20e"/>
      <path id="Shape-7" data-name="Shape" d="M.987,46.569a.337.337,0,0,1-.216-.6l7.7-6.4a.337.337,0,1,1,.431.519l-7.7,6.4a.336.336,0,0,1-.215.078Z" transform="translate(-0.43 -26.5)" fill="#ffc20e"/>
      <path id="Shape-8" data-name="Shape" d="M42.563,46.569a.336.336,0,0,1-.215-.078l-7.7-6.4a.337.337,0,1,1,.431-.519l7.7,6.4a.337.337,0,0,1-.216.6Z" transform="translate(-22.871 -26.501)" fill="#ffc20e"/>
      <path id="Shape-9" data-name="Shape" d="M22.837,13.924a.337.337,0,0,1-.337-.337V6.677c0,.007-.015,0-.037,0H9.712a.055.055,0,0,0-.04.015l0,6.9a.337.337,0,1,1-.675,0V6.675A.7.7,0,0,1,9.712,6h12.75a.7.7,0,0,1,.712.675v6.912A.337.337,0,0,1,22.837,13.924Z" transform="translate(-5.963 -4.311)" fill="#ffc20e"/>
    </g>
  </g>
</svg>
