<svg id="forward-tome" xmlns="http://www.w3.org/2000/svg" xmlns:xlink="http://www.w3.org/1999/xlink" width="24" height="24" viewBox="0 0 24 24">
  <defs>
    <clipPath id="clip-path">
      <rect id="Rectangle_11930" data-name="Rectangle 11930" width="24" height="24" fill="#2cd07e"/>
    </clipPath>
  </defs>
  <g id="Group_2862" data-name="Group 2862" clip-path="url(#clip-path)">
    <path id="Path_9305" data-name="Path 9305" d="M9,20.756a.6.6,0,0,1-.423-.175L6.835,18.848a2,2,0,0,1,0-2.834l1.741-1.722a.6.6,0,1,1,.844.854L7.681,16.867a.8.8,0,0,0-.007,1.122l1.749,1.743A.6.6,0,0,1,9,20.756" fill="#2cd07e"/>
    <path id="Path_9306" data-name="Path 9306" d="M13.846,23.661l-.019-1.2a2.236,2.236,0,0,0-.023-4.471H7.5a.6.6,0,1,1,0-1.2h6.3a3.435,3.435,0,0,1,.042,6.869" fill="#2cd07e"/>
    <path id="Path_9307" data-name="Path 9307" d="M12,9.31a3.412,3.412,0,0,1-1.8-.518L.949,3.041a.6.6,0,0,1,.634-1.02l9.249,5.751a2.2,2.2,0,0,0,2.336,0l9.109-5.665a.6.6,0,1,1,.634,1.02L13.8,8.792A3.412,3.412,0,0,1,12,9.31" fill="#2cd07e"/>
    <path id="Path_9308" data-name="Path 9308" d="M3.75,17.99A3.417,3.417,0,0,1,.337,14.578V3.751A3.416,3.416,0,0,1,3.749.337h16.5A3.417,3.417,0,0,1,23.663,3.75V9.89a.6.6,0,0,1-1.2,0V3.75A2.216,2.216,0,0,0,20.25,1.537H3.75A2.212,2.212,0,0,0,1.537,3.751V14.578A2.216,2.216,0,0,0,3.75,16.791a.6.6,0,1,1,0,1.2" fill="#2cd07e"/>
    <path id="Path_9309" data-name="Path 9309" d="M20.25,17.99a.6.6,0,1,1,0-1.2,2.216,2.216,0,0,0,2.213-2.214.6.6,0,0,1,1.2,0A3.416,3.416,0,0,1,20.25,17.99" fill="#2cd07e"/>
  </g>
</svg>
