<svg xmlns="http://www.w3.org/2000/svg" width="30.316" height="24" viewBox="0 0 30.316 24">
  <g id="new-letter" transform="translate(-2 -7)">
    <path id="Path_9296" data-name="Path 9296" d="M26,15H3.895A1.9,1.9,0,0,0,2,16.895V32.053a1.9,1.9,0,0,0,1.895,1.895H26a1.9,1.9,0,0,0,1.895-1.895V16.895A1.9,1.9,0,0,0,26,15Zm.632,17.053a.632.632,0,0,1-.632.632H3.895a.632.632,0,0,1-.632-.632V16.895a.632.632,0,0,1,.632-.632H26a.632.632,0,0,1,.632.632Z" transform="translate(0 -2.947)" fill="#ff5050"/>
    <path id="Path_9297" data-name="Path 9297" d="M32.632,7H9.895A1.9,1.9,0,0,0,8,8.895v1.263a.632.632,0,0,0,1.263,0V8.895a.632.632,0,0,1,.632-.632H32.632a.632.632,0,0,1,.632.632V24.053a.632.632,0,0,1-.632.632H31.368a.632.632,0,1,0,0,1.263h1.263a1.9,1.9,0,0,0,1.895-1.895V8.895A1.9,1.9,0,0,0,32.632,7Z" transform="translate(-2.211)" fill="#ff5050"/>
    <path id="Path_9298" data-name="Path 9298" d="M23.026,23.271l-6.271,5.017L7.982,22.439a.632.632,0,1,0-.7,1.051L16.439,29.6a.632.632,0,0,0,.745-.032l6.632-5.305a.632.632,0,0,0-.789-.987Z" transform="translate(-1.842 -5.649)" fill="#ff5050"/>
    <path id="Path_9299" data-name="Path 9299" d="M10.158,37H7.632a.632.632,0,1,0,0,1.263h2.526a.632.632,0,1,0,0-1.263Z" transform="translate(-1.842 -11.053)" fill="#ff5050"/>
  </g>
</svg>
