<svg xmlns="http://www.w3.org/2000/svg" width="1076.077" height="752.55" viewBox="0 0 1076.077 752.55">
  <g id="send" transform="translate(-7.107 -176.45)">
    <g id="Group_2592" data-name="Group 2592" transform="translate(813.318 176.45)">
      <path id="Path_8451" data-name="Path 8451" d="M562.153,330.321l-29.566-60.345,213.1-93.526Z" transform="translate(-475.819 -176.45)" fill="#d5dfe6"/>
      <path id="Path_8452" data-name="Path 8452" d="M731.233,177.531l-180.642,152.1,24.063-41.06Z" transform="translate(-464.256 -175.756)" fill="#6f94ac"/>
      <path id="Path_8453" data-name="Path 8453" d="M724.711,176.45,565.243,289.261l60.549,26.786Z" transform="translate(-454.845 -176.45)" fill="#fff"/>
      <path id="Path_8454" data-name="Path 8454" d="M554.79,269.976,498.02,251.967,767.886,176.45Z" transform="translate(-498.02 -176.45)" fill="#fff"/>
    </g>
    <path id="Path_8455" data-name="Path 8455" d="M7.11,867.329c64.282-.2,149.732-36.445,166.884-106.05,6.922-28.086.769-58.184-21.494-78.683-28.134-25.907-59.023-2.234-51.421,33.924,12.486,59.4,85.032,103.384,140.169,104.005,31.868.36,61.767-14.92,73.224-46.149,18.282-49.831-13.953-81.844-38.984-121.365-31.123-49.135-107.528-139.051-67.036-199.825,28.421-42.655,98.306-40.127,139.979-22.637,49,20.565,88.408,63.479,110.536,111.192,32.885,70.907,18.714,154.956,82.362,212.912,27.447,24.994,60.386,25.6,88.661,1.112,25.728-22.287,24.875-54.471,26.96-85.538a1030.651,1030.651,0,0,0,.466-126.192c-2.245-40.259-30.109-78.106-73.109-81.115-11.163-.78-23.629,4.927-26.828,15.649-2.412,8.085,1,17.006,6.622,23.305,40.92,45.867,94.4,28.137,129.478-14.4,31.578-38.288,50.992-89.8,40.07-139.5-3.519-16.014-10.716-40.172,9.326-49.311,14.72-6.714,32.182,5.837,40.429,17.216,18.535,25.577,40.086,71.508,75.517,33.318,9-9.7,14.35-22.172,19.08-34.532,5.6-14.634,11.089-31.062,20.492-43.752" transform="translate(0 60.672)" fill="none" stroke="#fff" stroke-width="2" stroke-dasharray="5" opacity="0.1"/>
  </g>
</svg>
