<svg xmlns="http://www.w3.org/2000/svg" xmlns:xlink="http://www.w3.org/1999/xlink" width="25.047" height="24.2" viewBox="0 0 25.047 24.2">
  <defs>
    <clipPath id="clip-path">
      <rect id="Rectangle_11929" data-name="Rectangle 11929" width="25.047" height="24.2" transform="translate(0 0)" fill="#4fc3f7"/>
    </clipPath>
  </defs>
  <g id="sent-letter" transform="translate(0 0)">
    <g id="Group_2861" data-name="Group 2861" clip-path="url(#clip-path)">
      <path id="Path_9300" data-name="Path 9300" d="M1.863,18.681A1.868,1.868,0,0,1,0,16.818V1.864A1.868,1.868,0,0,1,1.863,0H22.975a1.867,1.867,0,0,1,1.863,1.864V14.618a.544.544,0,1,1-1.088,0V3.522L13.127,9.6a1.4,1.4,0,0,1-1.381,0L1.087,3.522v13.3a.778.778,0,0,0,.776.775H7.141a.544.544,0,1,1,0,1.088ZM12.287,8.663a.3.3,0,0,0,.15.04.307.307,0,0,0,.151-.04L23.751,2.271V1.864a.779.779,0,0,0-.776-.776H1.864a.779.779,0,0,0-.776.776V2.27Z" fill="#4fc3f7"/>
      <path id="Path_9301" data-name="Path 9301" d="M14.573,24.2a1.641,1.641,0,0,1-1.556-2.161l1.242-3.726a.563.563,0,0,0,0-.349l-1.242-3.727a1.642,1.642,0,0,1,2.291-1.989l8.7,4.349.146.068a1.651,1.651,0,0,1,0,2.937l-8.844,4.426a1.657,1.657,0,0,1-.735.172m-.528-1.816a.554.554,0,0,0,.526.729.532.532,0,0,0,.247-.059l8.844-4.42a.559.559,0,0,0,.278-.667.558.558,0,0,0-.276-.325l-8.843-4.42a.561.561,0,0,0-.243-.055.574.574,0,0,0-.17.026.559.559,0,0,0-.36.7l1.242,3.725L19,17.593a.544.544,0,0,1,0,1.089H15.283Z" fill="#4fc3f7"/>
      <path id="Path_9302" data-name="Path 9302" d="M10.08,21.566a.544.544,0,1,1,0-1.088H12a.544.544,0,1,1,0,1.088Z" fill="#4fc3f7"/>
      <path id="Path_9303" data-name="Path 9303" d="M9.12,18.679a.544.544,0,0,1,0-1.088H12a.544.544,0,0,1,0,1.088Z" fill="#4fc3f7"/>
      <path id="Path_9304" data-name="Path 9304" d="M10.08,15.8a.544.544,0,0,1,0-1.088H12A.544.544,0,0,1,12,15.8Z" fill="#4fc3f7"/>
    </g>
  </g>
</svg>
