<svg xmlns="http://www.w3.org/2000/svg" xmlns:xlink="http://www.w3.org/1999/xlink" width="25.103" height="25.109" viewBox="0 0 25.103 25.109">
  <defs>
    <clipPath id="clip-path">
      <rect id="Rectangle_14502" data-name="Rectangle 14502" width="25.103" height="25.109" transform="translate(0 0)" fill="#fff"/>
    </clipPath>
  </defs>
  <g id="approval" transform="translate(0 0)">
    <g id="Group_14225" data-name="Group 14225" clip-path="url(#clip-path)">
      <path id="Path_15163" data-name="Path 15163" d="M.682,25.1A.684.684,0,0,1,0,24.419V3.746a.685.685,0,0,1,.2-.484L3.262.2A.678.678,0,0,1,3.746,0H19.059a.684.684,0,0,1,.684.683V8.34a.684.684,0,0,1-1.367,0V1.365H4.428V3.746a.682.682,0,0,1-.682.683H1.365V23.737H14.529a.683.683,0,0,1,0,1.366ZM3.063,3.063V2.331l-.732.732Z" fill="#fff"/>
      <path id="Path_15164" data-name="Path 15164" d="M19.361,25.1a4.679,4.679,0,0,1-1.032-.138,14.32,14.32,0,0,1-6.155-3.55c-1.118-1.194-1.05-1.962-.8-2.4l1.443-2.5a1.484,1.484,0,0,1,1.4-.648A4.785,4.785,0,0,1,15.282,16c.276.066.549.144.816.236a5.052,5.052,0,0,0,1.87-1.762,7.788,7.788,0,0,0,.9-3.136,3.119,3.119,0,0,1,3.117-2.921,3.123,3.123,0,0,1,1.739,5.715A7.812,7.812,0,0,0,21.439,16.5,5.054,5.054,0,0,0,20.861,19c.2.18.4.369.587.567,1.109,1.185,1.042,1.953.79,2.389l-1.453,2.519-.047.07a1.573,1.573,0,0,1-1.208.566s-.112,0-.169-.008m-6.738-5.365a2.762,2.762,0,0,0,.535.733,12.963,12.963,0,0,0,5.495,3.168,3.445,3.445,0,0,0,.741.1,1.5,1.5,0,0,0,.15-.007A2.789,2.789,0,0,0,19.007,23a12.963,12.963,0,0,0-5.495-3.168,3.429,3.429,0,0,0-.746-.1,1.325,1.325,0,0,0-.143.008M13.3,18.4a5.059,5.059,0,0,1,.542.1A14.326,14.326,0,0,1,20,22.053a4.766,4.766,0,0,1,.361.422l.688-1.19a4.2,4.2,0,0,0-.591-.788,12.957,12.957,0,0,0-5.5-3.168,3.431,3.431,0,0,0-.744-.1.719.719,0,0,0-.279.036Zm4.32-1.525a16.082,16.082,0,0,1,1.928,1.115,6.16,6.16,0,0,1,.711-2.174A9.157,9.157,0,0,1,22.965,13a1.758,1.758,0,0,0-.1-2.975,1.77,1.77,0,0,0-.756-.231l-.124,0a1.761,1.761,0,0,0-1.75,1.633,9.116,9.116,0,0,1-1.08,3.741,6.179,6.179,0,0,1-1.532,1.714" fill="#fff"/>
      <path id="Path_15165" data-name="Path 15165" d="M3.087,14.54a.683.683,0,1,1,0-1.366H16.837a.683.683,0,1,1,0,1.366Z" fill="#fff"/>
      <path id="Path_15166" data-name="Path 15166" d="M3.087,17.065a.683.683,0,0,1,0-1.366h8.079a.683.683,0,0,1,0,1.366Z" fill="#fff"/>
      <path id="Path_15167" data-name="Path 15167" d="M3.087,19.586a.683.683,0,0,1,0-1.366H9.962a.683.683,0,0,1,.483,1.164.676.676,0,0,1-.482.2Z" fill="#fff"/>
      <path id="Path_15168" data-name="Path 15168" d="M3.087,22.2a.683.683,0,1,1,0-1.366H10.7a.683.683,0,1,1,0,1.366Z" fill="#fff"/>
      <path id="Path_15169" data-name="Path 15169" d="M9.962,12.014a4.472,4.472,0,1,1,4.472-4.472,4.477,4.477,0,0,1-4.472,4.472m0-7.578a3.106,3.106,0,1,0,3.106,3.106A3.11,3.11,0,0,0,9.962,4.436" fill="#fff"/>
      <path id="Path_15170" data-name="Path 15170" d="M9.556,9.911a.686.686,0,0,1-.393-.124l-1.2-.847a.7.7,0,0,1-.29-.465.681.681,0,0,1,.676-.782.679.679,0,0,1,.407.135l.69.486,1.762-2.045a.682.682,0,1,1,1.033.892L10.074,9.674a.683.683,0,0,1-.518.237" fill="#fff"/>
    </g>
  </g>
</svg>
