<svg xmlns="http://www.w3.org/2000/svg" width="41.063" height="38.882" viewBox="0 0 41.063 38.882">
  <g id="_x31_3_Calendar" transform="translate(-23.69 -36.026)" opacity="0.5">
    <g id="Group_2760" data-name="Group 2760" transform="translate(23.69 36.026)">
      <path id="Path_7324" data-name="Path 7324" d="M64.75,44.14a5.768,5.768,0,0,0-5.761-5.761H55V37a.978.978,0,1,0-1.955,0v1.376H48.466V37a.978.978,0,1,0-1.955,0v1.376H41.929V37a.978.978,0,1,0-1.955,0v1.376H35.391V37a.978.978,0,1,0-1.955,0v1.376H29.451a5.768,5.768,0,0,0-5.761,5.761c0,2.573,0-9.29,0,25.009a5.766,5.766,0,0,0,5.759,5.759H58.984a5.77,5.77,0,0,0,5.769-5.759C64.752,66.673,64.753,76.457,64.75,44.14Zm-39.1,0a3.81,3.81,0,0,1,3.806-3.806h3.984v1.376a.978.978,0,1,0,1.955,0V40.335h4.583v1.376a.978.978,0,1,0,1.955,0V40.335h4.582v1.376a.978.978,0,1,0,1.955,0V40.335h4.583v1.376a.978.978,0,1,0,1.955,0V40.335h3.984a3.81,3.81,0,0,1,3.806,3.806v4.607H25.645ZM62.8,69.149a3.813,3.813,0,0,1-3.813,3.8H29.453a3.808,3.808,0,0,1-3.8-3.8V50.707H62.8Z" transform="translate(-23.69 -36.026)"/>
      <path id="Path_7325" data-name="Path 7325" d="M130.172,251.428h20.463a.978.978,0,1,0,0-1.955H130.172a.978.978,0,1,0,0,1.955Z" transform="translate(-119.87 -230.609)"/>
      <path id="Path_7326" data-name="Path 7326" d="M130.172,318.893h20.463a.978.978,0,1,0,0-1.955H130.172a.978.978,0,1,0,0,1.955Z" transform="translate(-119.87 -292.111)"/>
      <path id="Path_7327" data-name="Path 7327" d="M130.172,386.353H138.4a.978.978,0,0,0,0-1.955h-8.226a.978.978,0,0,0,0,1.955Z" transform="translate(-119.87 -353.609)"/>
    </g>
  </g>
</svg>
