<svg xmlns="http://www.w3.org/2000/svg" xmlns:xlink="http://www.w3.org/1999/xlink" width="26.502" height="26.502" viewBox="0 0 26.502 26.502">
  <defs>
    <clipPath id="clip-path">
      <rect id="Rectangle_11924" data-name="Rectangle 11924" width="26.502" height="26.502" transform="translate(-2 -2)" fill="#fff" stroke="#fff" stroke-width="0.4"/>
    </clipPath>
  </defs>
  <g id="dashboard" transform="translate(2 2)">
    <g id="Group_440" data-name="Group 440" clip-path="url(#clip-path)">
      <path id="Path_7294" data-name="Path 7294" d="M8.21,10.339H2.129A2.131,2.131,0,0,1,0,8.21V2.129A2.126,2.126,0,0,1,2.129,0H8.21a2.126,2.126,0,0,1,2.129,2.129V8.21A2.131,2.131,0,0,1,8.21,10.339M2.129,1.216a.911.911,0,0,0-.913.912V8.21a.915.915,0,0,0,.913.912H8.21a.915.915,0,0,0,.912-.912V2.129a.91.91,0,0,0-.912-.912Z" fill="#fff" stroke="#fff" stroke-width="0.4"/>
      <path id="Path_7295" data-name="Path 7295" d="M8.21,215.139H2.129A2.131,2.131,0,0,1,0,213.01v-6.082A2.126,2.126,0,0,1,2.129,204.8H8.21a2.126,2.126,0,0,1,2.129,2.129v6.082a2.131,2.131,0,0,1-2.129,2.129m-6.081-9.123a.911.911,0,0,0-.913.912v6.082a.915.915,0,0,0,.913.912H8.21a.915.915,0,0,0,.912-.912v-6.082a.91.91,0,0,0-.912-.912Z" transform="translate(0 -192.637)" fill="#fff" stroke="#fff" stroke-width="0.4"/>
      <path id="Path_7296" data-name="Path 7296" d="M213.01,10.339h-6.081A2.131,2.131,0,0,1,204.8,8.21V2.129A2.126,2.126,0,0,1,206.929,0h6.081a2.126,2.126,0,0,1,2.129,2.129V8.21a2.131,2.131,0,0,1-2.129,2.129m-6.081-9.123a.911.911,0,0,0-.913.912V8.21a.915.915,0,0,0,.913.912h6.081a.915.915,0,0,0,.912-.912V2.129a.91.91,0,0,0-.912-.912Z" transform="translate(-192.637)" fill="#fff" stroke="#fff" stroke-width="0.4"/>
      <path id="Path_7297" data-name="Path 7297" d="M213.01,215.139h-6.081a2.131,2.131,0,0,1-2.129-2.129v-6.082a2.126,2.126,0,0,1,2.129-2.129h6.081a2.126,2.126,0,0,1,2.129,2.129v6.082a2.131,2.131,0,0,1-2.129,2.129m-6.081-9.123a.911.911,0,0,0-.913.912v6.082a.915.915,0,0,0,.913.912h6.081a.915.915,0,0,0,.912-.912v-6.082a.91.91,0,0,0-.912-.912Z" transform="translate(-192.637 -192.637)" fill="#fff" stroke="#fff" stroke-width="0.4"/>
    </g>
  </g>
</svg>
