<svg xmlns="http://www.w3.org/2000/svg" width="41.956" height="46.618" viewBox="0 0 41.956 46.618">
  <g id="event" transform="translate(-3)" opacity="0.5">
    <path id="Path_7321" data-name="Path 7321" d="M6.108,31.856h2.6a4.626,4.626,0,0,0,1.573,5.259,7,7,0,0,0-4.175,6.4v1.554a1.554,1.554,0,0,0,1.554,1.554H40.294a1.554,1.554,0,0,0,1.554-1.554V43.51a6.958,6.958,0,0,0-4.174-6.4,4.627,4.627,0,0,0,1.571-5.258h2.6a3.108,3.108,0,0,0,3.108-3.108V4.662a3.108,3.108,0,0,0-3.108-3.108H38.74V.777a.777.777,0,0,0-1.554,0v.777H31.748V.777a.777.777,0,0,0-1.554,0v.777H24.755V.777a.777.777,0,1,0-1.554,0v.777H17.762V.777a.777.777,0,1,0-1.554,0v.777H10.77V.777a.777.777,0,0,0-1.554,0v.777H6.108A3.108,3.108,0,0,0,3,4.662V28.748A3.108,3.108,0,0,0,6.108,31.856Zm3.885,1.554A3.108,3.108,0,1,1,13.1,36.517,3.108,3.108,0,0,1,9.993,33.409Zm22.046,3.705a7.011,7.011,0,0,0-1.5.9A7.027,7.027,0,0,0,26.8,34.007a4.672,4.672,0,0,0,1.573-2.151h2.1a4.626,4.626,0,0,0,1.573,5.259Zm-13.5,7.949V40.4a5.439,5.439,0,1,1,10.877,0v4.662Zm5.439-11.654A3.108,3.108,0,1,1,27.086,30.3,3.108,3.108,0,0,1,23.978,33.409Zm-2.817.6a7.02,7.02,0,0,0-3.745,4,7.024,7.024,0,0,0-1.5-.9,4.627,4.627,0,0,0,1.571-5.258h2.1a4.672,4.672,0,0,0,1.573,2.151ZM7.662,45.064V43.51a5.439,5.439,0,0,1,9.286-3.849c.025.025.047.052.071.078-.02.218-.033.44-.033.664v4.662Zm31.04-5.4a5.439,5.439,0,0,1,1.593,3.851v1.554H30.971V40.4c0-.221-.013-.439-.033-.654a5.433,5.433,0,0,1,7.764-.089Zm-3.846-3.142a3.108,3.108,0,1,1,3.108-3.108A3.108,3.108,0,0,1,34.856,36.517ZM41.848,30.3H38.321a4.641,4.641,0,0,0-6.931,0H28.64a4.662,4.662,0,0,0-9.324,0h-2.75a4.641,4.641,0,0,0-6.931,0H6.108a1.554,1.554,0,0,1-1.554-1.554V7.77H43.4V28.748A1.554,1.554,0,0,1,41.848,30.3ZM6.108,3.108H9.216v.777a.777.777,0,0,0,1.554,0V3.108h5.439v.777a.777.777,0,1,0,1.554,0V3.108H23.2v.777a.777.777,0,1,0,1.554,0V3.108h5.439v.777a.777.777,0,0,0,1.554,0V3.108h5.439v.777a.777.777,0,0,0,1.554,0V3.108h3.108A1.554,1.554,0,0,1,43.4,4.662V6.216H4.554V4.662A1.554,1.554,0,0,1,6.108,3.108Z"/>
  </g>
</svg>
