<svg xmlns="http://www.w3.org/2000/svg" width="24.23" height="26" viewBox="0 0 24.23 26">
  <g id="event" transform="translate(-2.953 -2)">
    <path id="Path_15171" data-name="Path 15171" d="M10.1,2a.928.928,0,0,0-.929.929v.842H7.721A4.773,4.773,0,0,0,2.953,8.538V23.232A4.774,4.774,0,0,0,7.721,28H22.415a4.774,4.774,0,0,0,4.768-4.768V8.538a4.773,4.773,0,0,0-4.768-4.767H20.96V2.929a.929.929,0,0,0-1.857,0v.842H11.033V2.929A.928.928,0,0,0,10.1,2Zm9,3.628V6.47a.929.929,0,0,0,1.857,0V5.628h1.455a2.914,2.914,0,0,1,2.911,2.91V23.232a2.914,2.914,0,0,1-2.911,2.911H7.721A2.914,2.914,0,0,1,4.81,23.232V8.538a2.914,2.914,0,0,1,2.911-2.91H9.176V6.47a.929.929,0,1,0,1.857,0V5.628H19.1Z" fill="#fff"/>
    <path id="Path_15172" data-name="Path 15172" d="M8.119,14.529a2.385,2.385,0,0,0,.608,2.461l1.4,1.369a.545.545,0,0,1,.156.482l-.331,1.932A2.4,2.4,0,0,0,13.441,23.3l1.735-.912a.543.543,0,0,1,.506,0l1.736.913A2.4,2.4,0,0,0,20.9,20.773L20.57,18.84a.544.544,0,0,1,.157-.482l1.4-1.367a2.4,2.4,0,0,0-1.331-4.1l-1.941-.282a.548.548,0,0,1-.41-.3l-.867-1.757a2.4,2.4,0,0,0-4.307,0l-.867,1.757a.548.548,0,0,1-.41.3l-1.941.282a2.385,2.385,0,0,0-1.939,1.634Zm5.954-1.393.867-1.757a.546.546,0,0,1,.978,0l.867,1.757a2.4,2.4,0,0,0,1.808,1.314l1.941.282a.545.545,0,0,1,.3.929l-1.4,1.367a2.4,2.4,0,0,0-.691,2.126l.331,1.933a.545.545,0,0,1-.79.573l-1.735-.912a2.4,2.4,0,0,0-2.236,0l-1.734.911a.545.545,0,0,1-.791-.573l.331-1.932a2.4,2.4,0,0,0-.69-2.126l-1.4-1.369a.544.544,0,0,1,.3-.928l1.941-.282a2.4,2.4,0,0,0,1.808-1.314Z" transform="translate(-0.36 -0.516)" fill="#fff"/>
  </g>
</svg>
