<svg xmlns="http://www.w3.org/2000/svg" xmlns:xlink="http://www.w3.org/1999/xlink" width="20" height="24" viewBox="0 0 20 24">
  <defs>
    <clipPath id="clip-path">
      <rect id="Rectangle_14503" data-name="Rectangle 14503" width="20" height="24" transform="translate(-0.301 0.124)" fill="#fff"/>
    </clipPath>
  </defs>
  <g id="fund" transform="translate(0.605 -0.227)">
    <g id="Group_14227" data-name="Group 14227" transform="translate(-0.305 0.103)" clip-path="url(#clip-path)">
      <path id="Path_15173" data-name="Path 15173" d="M15.976,10.778a10.177,10.177,0,0,0-2.9-2.487,2.157,2.157,0,0,0-1.065-3.47l1.832-3.194A.718.718,0,0,0,13.422.58a14.72,14.72,0,0,0-8.185,0,.718.718,0,0,0-.422,1.046L6.647,4.821a2.156,2.156,0,0,0-1.065,3.47,10.176,10.176,0,0,0-2.9,2.487A11.77,11.77,0,0,0,0,18.038C0,23.257,4.165,24.5,9.33,24.5s9.33-1.242,9.33-6.459a11.771,11.771,0,0,0-2.683-7.26M6.531,1.733a13.317,13.317,0,0,1,5.6,0l-1.58,2.756a8.8,8.8,0,0,0-2.437,0ZM7,6.215a7.42,7.42,0,0,1,3.784-.231h0a7.576,7.576,0,0,1,.871.23.718.718,0,0,1-.146,1.4,7.223,7.223,0,0,0-4.362,0A.717.717,0,0,1,7,6.215M9.33,23.071c-5.607,0-7.894-1.465-7.894-5.033A10.459,10.459,0,0,1,3.8,11.683,7.248,7.248,0,0,1,9.33,8.708a7.3,7.3,0,0,1,5.533,2.975,10.459,10.459,0,0,1,2.362,6.355c0,3.568-2.287,5.033-7.894,5.033" transform="translate(0.369 -0.124)" fill="#fff"/>
      <path id="Path_15174" data-name="Path 15174" d="M148.584,274.129a.551.551,0,0,1-.391-.166c-.248-.245-.494-.49-.739-.738-.66-.66-1.17-1.171-1.8-1.8a.643.643,0,0,1-.178-.294.548.548,0,0,1,.475-.679c.324-.014.689,0,1.019,0a1.3,1.3,0,0,0,1.359-.624h-2.307a.528.528,0,0,1-.489-.278.553.553,0,0,1,.492-.824h.73c.1,0,1.52,0,1.571,0a1.153,1.153,0,0,0-.567-.519,2.6,2.6,0,0,0-1.016-.095h-.724a.552.552,0,0,1-.237-1.053.623.623,0,0,1,.23-.053h4.733a.547.547,0,0,1,.544.476.557.557,0,0,1-.55.628c-.468,0-1.014,0-1.486,0a4.512,4.512,0,0,1,.249.614h1.224a.547.547,0,0,1,.5.285.554.554,0,0,1-.473.817c-.38-.008-.848,0-1.245,0a2.271,2.271,0,0,1-2.16,1.722c.535.535,1.075,1.078,1.611,1.61A.561.561,0,0,1,148.584,274.129Z" transform="translate(-138.123 -254.35)" fill="#fff"/>
    </g>
  </g>
</svg>
