<svg xmlns="http://www.w3.org/2000/svg" width="45.102" height="45.102" viewBox="0 0 45.102 45.102">
  <g id="expanding-two-opposite-arrows-diagonal-symbol-of-interface" transform="translate(0)">
    <g id="_x35_" transform="translate(0 0)">
      <g id="Group_2762" data-name="Group 2762">
        <path id="Path_7329" data-name="Path 7329" d="M17.979,25.07l-15.2,15.2.044-9.267a1.409,1.409,0,0,0-2.819,0V43.692a1.255,1.255,0,0,0,.445.985,1.4,1.4,0,0,0,1,.424H14.094a1.409,1.409,0,1,0,0-2.819H4.751l15.22-15.219ZM44.656.424a1.4,1.4,0,0,0-1-.424H31.007a1.409,1.409,0,1,0,0,2.819h9.342L25.13,18.039l1.993,1.993,15.2-15.2-.045,9.267a1.409,1.409,0,1,0,2.819,0V1.409A1.255,1.255,0,0,0,44.656.424Z" transform="translate(0 0)"/>
      </g>
    </g>
  </g>
</svg>
