<?xml version="1.0" encoding="utf-8"?>
<!-- Generator: Adobe Illustrator 27.9.0, SVG Export Plug-In . SVG Version: 6.00 Build 0)  -->
<svg version="1.1" id="Layer_1" xmlns="http://www.w3.org/2000/svg" xmlns:xlink="http://www.w3.org/1999/xlink" x="0px" y="0px"
	 viewBox="0 0 177 185.8" style="enable-background:new 0 0 177 185.8;" xml:space="preserve">
<style type="text/css">
	.st0{fill:#D15642;}
	.st1{opacity:0.1;fill:#FFB264;enable-background:new    ;}
</style>
<g>
	<g id="connection" transform="translate(1042 1287)">
		<path id="Path_13485" class="st0" d="M-962.8-1214.5c1.2,0,2.2-1,2.2-2.2v-44.4l91.2,0.1v58.9c0,5.9-4.8,10.7-10.7,10.7h-55.7
			c-1.2,0-2.2,1-2.2,2.2s1,2.2,2.2,2.2h55.7c8.3,0,15.1-6.8,15.1-15.1v-69.8c0-8.3-6.8-15.1-15.1-15.1h-69.8
			c-8.3,0-15.1,6.8-15.1,15.1v55.3C-964.9-1215.5-964-1214.5-962.8-1214.5C-962.8-1214.5-962.8-1214.5-962.8-1214.5z M-949.9-1282.7
			h69.8c5.9,0,10.7,4.8,10.7,10.7v6.5l-91.2-0.1v-6.5C-960.5-1277.9-955.8-1282.7-949.9-1282.7L-949.9-1282.7z"/>
		<circle id="Ellipse_161" class="st0" cx="-878.2" cy="-1273.4" r="2.2"/>
		<circle id="Ellipse_162" class="st0" cx="-886.9" cy="-1273.4" r="2.2"/>
		<circle id="Ellipse_163" class="st0" cx="-895.5" cy="-1273.4" r="2.2"/>
		<path id="Path_13486" class="st0" d="M-929.7-1222.3c-0.8-0.8-2.2-0.8-3.1,0c0,0,0,0,0,0l-28.3,28.3c-0.9,0.8-0.9,2.2,0,3.1
			s2.2,0.9,3.1,0c0,0,0,0,0,0l28.3-28.3C-928.9-1220.1-928.9-1221.5-929.7-1222.3C-929.7-1222.3-929.7-1222.3-929.7-1222.3
			L-929.7-1222.3z"/>
		<path id="Path_13487" class="st0" d="M-936.7-1202.4c0.5,0,1,0.1,1.4,0.1c3.8,0,7.5-1.5,10.2-4.2l9.8-9.8c5.3-6,4.7-15.2-1.3-20.4
			c-5.4-4.8-13.5-4.8-19-0.1l-9.8,9.8c-3,3-4.5,7.1-4.2,11.3c0.1,1.2,1.1,2.1,2.3,2.1s2.1-1.1,2.1-2.3c0,0,0,0,0-0.1
			c-0.2-2.9,0.8-5.8,2.9-7.9l9.8-9.8c4.1-3.8,10.6-3.4,14.3,0.7c3.5,3.9,3.5,9.8,0,13.6l-9.8,9.8c-2.1,2.1-5.1,3.2-8.2,2.9
			c-1.2-0.1-2.3,0.8-2.4,2c-0.1,1.2,0.8,2.2,1.9,2.3L-936.7-1202.4z"/>
		<path id="Path_13488" class="st0" d="M-975.6-1176.4c5.7,5.6,14.8,5.6,20.5,0l9.8-9.8c2.9-2.9,4.5-6.9,4.3-11.1
			c-0.1-1.2-1.1-2.1-2.3-2.1c-1.2,0.1-2.1,1.1-2.1,2.3c0,0,0,0,0,0c0.2,2.9-0.9,5.7-2.9,7.7l-9.8,9.8c-3.9,4-10.3,4.2-14.3,0.3
			c-4-3.9-4.2-10.3-0.3-14.3c0.1-0.1,0.1-0.1,0.2-0.2l9.8-9.8c2-2,4.8-3.1,7.6-3c1.2,0,2.2-0.9,2.2-2.1s-0.9-2.2-2.1-2.2l0,0
			c-4-0.1-7.9,1.4-10.8,4.2l-9.8,9.8C-981.2-1191.4-981.3-1182.2-975.6-1176.4C-975.6-1176.5-975.6-1176.5-975.6-1176.4
			L-975.6-1176.4z"/>
		<path id="Path_13489" class="st0" d="M-989-1148h69.8c8.3,0,15.1-6.8,15.1-15.1v-18.3c0-1.2-1-2.2-2.2-2.2s-2.2,1-2.2,2.2l0,0
			v18.3c0,5.9-4.8,10.7-10.7,10.7H-989c-5.9,0-10.7-4.8-10.7-10.7v-58.8h28.2c1.2,0,2.2-1,2.2-2.2c0-1.2-1-2.2-2.2-2.2h-28.2v-6.6
			c0-5.9,4.8-10.7,10.7-10.7h17.5c1.2,0,2.2-1,2.2-2.2s-1-2.2-2.2-2.2H-989c-8.3,0-15.1,6.8-15.1,15.1v69.8
			C-1004-1154.7-997.3-1148-989-1148L-989-1148z"/>
	</g>
	<circle id="Ellipse_154" class="st1" cx="79.8" cy="106" r="79.8"/>
</g>
</svg>
