<svg xmlns="http://www.w3.org/2000/svg" width="17.299" height="14.778" viewBox="0 0 17.299 14.778">
  <g id="Group_2764" data-name="Group 2764" transform="translate(-1643.472 -11.344)">
    <g id="_31_-_40" data-name="31 - 40" transform="translate(1641.472 5.344)">
      <g id="Language" transform="translate(2 6)">
        <path id="Path_7183" data-name="Path 7183" d="M17.334,10.521H13.009V7.966A1.968,1.968,0,0,0,11.043,6H3.966A1.968,1.968,0,0,0,2,7.966v4.718A1.968,1.968,0,0,0,3.966,14.65v.822a.786.786,0,0,0,1.343.553.351.351,0,0,0,.039-.045l.978-1.33H8.291v2.556a1.968,1.968,0,0,0,1.966,1.966h4.359l1.376,1.376a.786.786,0,0,0,1.342-.556v-.82A1.968,1.968,0,0,0,19.3,17.205V12.487a1.968,1.968,0,0,0-1.966-1.966ZM6.128,13.863a.393.393,0,0,0-.315.16L4.752,15.462V14.257a.393.393,0,0,0-.393-.393H3.966a1.18,1.18,0,0,1-1.18-1.18V7.966a1.18,1.18,0,0,1,1.18-1.18h7.077a1.18,1.18,0,0,1,1.18,1.18v2.556H10.257a1.949,1.949,0,0,0-1.16.387L7.862,8.2a.393.393,0,0,0-.716,0L5.181,12.521a.393.393,0,0,0,.2.521.386.386,0,0,0,.161.036.393.393,0,0,0,.358-.23l.61-1.342h2l.028.061a1.942,1.942,0,0,0-.24.922v1.376Zm2.017-3.145H6.864L7.5,9.309Zm10.368,6.487a1.18,1.18,0,0,1-1.18,1.18H16.94a.393.393,0,0,0-.393.393v1.213L15.056,18.5a.393.393,0,0,0-.278-.115H10.257a1.18,1.18,0,0,1-1.18-1.18V12.487a1.18,1.18,0,0,1,1.18-1.18h7.077a1.18,1.18,0,0,1,1.18,1.18Z" transform="translate(-2 -6)"/>
      </g>
    </g>
    <g id="Group_420" data-name="Group 420" transform="translate(14.472 8.624)">
      <text id="ଅ" transform="translate(1638.528 14.376)" font-size="7" font-family="NirmalaUI, Nirmala UI"><tspan x="0" y="0">ଅ</tspan></text>
    </g>
  </g>
</svg>
