<svg xmlns="http://www.w3.org/2000/svg" xmlns:xlink="http://www.w3.org/1999/xlink" width="25.276" height="25.276" viewBox="0 0 25.276 25.276">
  <defs>
    <clipPath id="clip-path">
      <rect id="Rectangle_14504" data-name="Rectangle 14504" width="25.276" height="25.276" transform="translate(0.257 0.26)" fill="#fff"/>
    </clipPath>
  </defs>
  <g id="mis-report" transform="translate(-0.257 -0.26)">
    <g id="Group_14228" data-name="Group 14228" clip-path="url(#clip-path)">
      <path id="Path_15175" data-name="Path 15175" d="M12.6,8.159a.494.494,0,1,1-.494.494.494.494,0,0,1,.494-.494" fill="#fff"/>
      <path id="Path_15176" data-name="Path 15176" d="M12.6,10.133a.494.494,0,1,1-.494.494.494.494,0,0,1,.494-.494" fill="#fff"/>
      <path id="Path_15177" data-name="Path 15177" d="M25.035,6.437H20.1a.75.75,0,0,1-.75-.75V.75a.75.75,0,0,1,1.5,0V4.937h4.187a.75.75,0,0,1,0,1.5" fill="#fff"/>
      <path id="Path_15178" data-name="Path 15178" d="M18.127,4.466H12.894a.75.75,0,0,1,0-1.5h5.233a.75.75,0,1,1,0,1.5" fill="#fff"/>
      <path id="Path_15179" data-name="Path 15179" d="M18.127,6.44H12.894a.75.75,0,0,1,0-1.5h5.233a.75.75,0,0,1,0,1.5" fill="#fff"/>
      <path id="Path_15180" data-name="Path 15180" d="M5.689,14.338a5.688,5.688,0,1,1,0-11.375A5.686,5.686,0,0,1,6.824,14.221a5.729,5.729,0,0,1-1.135.117m0-9.875a4.188,4.188,0,0,0,0,8.375,4.25,4.25,0,0,0,.836-.086,4.187,4.187,0,0,0-.837-8.289" fill="#fff"/>
      <path id="Path_15181" data-name="Path 15181" d="M5.686,12.364h0A3.721,3.721,0,0,1,1.974,8.652a.75.75,0,0,1,1.5,0,2.218,2.218,0,0,0,2.213,2.213.75.75,0,0,1,0,1.5" fill="#fff"/>
      <path id="Path_15182" data-name="Path 15182" d="M10.623,9.4H5.686a.75.75,0,0,1-.75-.75V3.716a.75.75,0,1,1,1.5,0V7.9h4.187a.75.75,0,1,1,0,1.5" fill="#fff"/>
      <path id="Path_15183" data-name="Path 15183" d="M24.051,25.79H7.661a1.738,1.738,0,0,1-1.737-1.736V13.491a.75.75,0,0,1,1.5,0V24.054a.237.237,0,0,0,.237.236h16.39a.236.236,0,0,0,.236-.236V6l-4.5-4.5H7.661a.238.238,0,0,0-.237.238V3.813a.75.75,0,1,1-1.5,0V1.741A1.74,1.74,0,0,1,7.661,0H20.1a.749.749,0,0,1,.53.22l4.936,4.935a.754.754,0,0,1,.219.53V24.054a1.738,1.738,0,0,1-1.736,1.736" fill="#fff"/>
      <path id="Path_15184" data-name="Path 15184" d="M9.636,22.535a1.737,1.737,0,1,1,0-3.474,1.787,1.787,0,0,1,1.23.509,1.739,1.739,0,0,1-1.23,2.965m0-1.974h0A.238.238,0,0,0,9.4,20.8c0,.259.474.261.474,0v0a.232.232,0,0,0-.233-.234" fill="#fff"/>
      <path id="Path_15185" data-name="Path 15185" d="M13.388,18.586h-.006a1.736,1.736,0,1,1,1.234-.509,1.752,1.752,0,0,1-1.228.509m0-1.977a.237.237,0,0,0-.237.237.24.24,0,0,0,.069.17.236.236,0,0,0,.169.07.239.239,0,0,0,0-.477" fill="#fff"/>
      <path id="Path_15186" data-name="Path 15186" d="M16.843,22.535a1.738,1.738,0,0,1,0-3.476h.007a1.738,1.738,0,0,1,0,3.476m0-1.976a.236.236,0,0,0-.237.236c0,.265.473.264.473,0v0a.234.234,0,0,0-.235-.236Z" fill="#fff"/>
      <path id="Path_15187" data-name="Path 15187" d="M21.928,16.61a1.737,1.737,0,1,1,1.737-1.738,1.74,1.74,0,0,1-1.737,1.738m0-1.974a.237.237,0,0,0-.237.236c0,.262.474.262.474,0a.237.237,0,0,0-.237-.236" fill="#fff"/>
      <path id="Path_15188" data-name="Path 15188" d="M10.334,20.849a.75.75,0,0,1-.551-1.259l2.356-2.553a.75.75,0,0,1,1.1,1.018l-2.356,2.553a.748.748,0,0,1-.551.241" fill="#fff"/>
      <path id="Path_15189" data-name="Path 15189" d="M16.146,20.849a.75.75,0,0,1-.584-.279L13.5,18.017a.75.75,0,1,1,1.167-.941l2.06,2.552a.75.75,0,0,1-.584,1.221" fill="#fff"/>
      <path id="Path_15190" data-name="Path 15190" d="M17.391,20.725a.75.75,0,0,1-.549-1.262l3.989-4.281a.75.75,0,0,1,1.1,1.023L17.94,20.487a.751.751,0,0,1-.549.238" fill="#fff"/>
      <path id="Path_15191" data-name="Path 15191" d="M22.073,9.4h-7.5a.75.75,0,0,1,0-1.5h7.5a.75.75,0,0,1,0,1.5" fill="#fff"/>
      <path id="Path_15192" data-name="Path 15192" d="M22.073,11.377h-7.5a.75.75,0,0,1,0-1.5h7.5a.75.75,0,1,1,0,1.5" fill="#fff"/>
    </g>
  </g>
</svg>
