<svg xmlns="http://www.w3.org/2000/svg" width="25.697" height="26.899" viewBox="0 0 25.697 26.899">
  <g id="registration" transform="translate(-11.25 -10.373)">
    <path id="Path_7308" data-name="Path 7308" d="M16.695,26.169H27.5a.538.538,0,0,0,0-1.076H16.695a.538.538,0,0,0,0,1.076Z" transform="translate(-1.544 -4.633)" fill="#fff"/>
    <path id="Path_7309" data-name="Path 7309" d="M35.575,12.911a2.56,2.56,0,0,0-3.448,1.082l-.434.831v-2.18a2.273,2.273,0,0,0-2.27-2.27H17.453a.482.482,0,0,0-.341.131c-.012.01-.028.015-.039.026L11.408,16.2c-.012.012-.017.029-.028.042a.477.477,0,0,0-.13.339V35a2.273,2.273,0,0,0,2.27,2.27h15.9A2.273,2.273,0,0,0,31.693,35V25.861l4.964-9.5a2.559,2.559,0,0,0-1.082-3.449ZM28.791,29.093l-2.623-1.37,5.013-9.6L33.8,19.5Zm-2.848-.273L28.019,29.9l-2.195,1.672ZM16.916,12.21v2.636a1.2,1.2,0,0,1-1.194,1.194H13.086ZM30.617,35A1.2,1.2,0,0,1,29.423,36.2h-15.9A1.2,1.2,0,0,1,12.326,35V17.115h3.4a2.272,2.272,0,0,0,2.27-2.27v-3.4H29.423a1.2,1.2,0,0,1,1.194,1.194v4.24l-3.906,7.477H15.15a.538.538,0,0,0,0,1.076h11L24.966,27.7a.531.531,0,0,0-.058.217s0,.006,0,.009l-.014.334H15.15a.538.538,0,0,0,0,1.076h9.694l-.122,2.824H15.15a.538.538,0,0,0,0,1.076H27.793a.538.538,0,0,0,0-1.076h-.961l2.513-1.914c.007-.005.01-.014.016-.019a.527.527,0,0,0,.135-.16l1.122-2.147V35ZM35.7,15.861l-1.4,2.682-2.623-1.37,1.4-2.682A1.48,1.48,0,0,1,35.7,15.861Z" transform="translate(0)" fill="#fff"/>
  </g>
</svg>
