<svg xmlns="http://www.w3.org/2000/svg" xmlns:xlink="http://www.w3.org/1999/xlink" width="52.047" height="52.047" viewBox="0 0 52.047 52.047">
  <defs>
    <clipPath id="clip-path">
      <path id="path3915" d="M0-682.665H52.047v52.047H0Z" transform="translate(0 682.665)" stroke="#707070" stroke-width="1.333"/>
    </clipPath>
  </defs>
  <g id="g3909" transform="translate(0 682.665)" opacity="0.5">
    <g id="g3911" transform="translate(0 -682.665)">
      <g id="g3913" transform="translate(0 0)" clip-path="url(#clip-path)">
        <g id="g3919" transform="translate(37.938 33.01)">
          <path id="path3921" d="M-79.317-123.648l-2.942,2.148a.909.909,0,0,1-1.4-1.016l1.133-3.462-2.96-2.141a.908.908,0,0,1,.532-1.645H-81.3l1.118-3.459a.908.908,0,0,1,1.729,0l1.118,3.459h3.653a.908.908,0,0,1,.532,1.645l-2.96,2.141,1.133,3.462a.909.909,0,0,1-1.4,1.016Z" transform="translate(85.863 133.853)" fill="none" stroke="#000" stroke-linecap="round" stroke-linejoin="round" stroke-width="1.5"/>
        </g>
        <g id="g3923" transform="translate(1.017 33.01)">
          <path id="path3925" d="M-79.317-123.648l2.942,2.148a.909.909,0,0,0,1.4-1.016l-1.133-3.462,2.96-2.141a.908.908,0,0,0-.532-1.645h-3.653l-1.118-3.459a.908.908,0,0,0-1.729,0l-1.118,3.459h-3.653a.908.908,0,0,0-.532,1.645l2.96,2.141-1.133,3.462a.909.909,0,0,0,1.4,1.016Z" transform="translate(85.863 133.853)" fill="none" stroke="#000" stroke-linecap="round" stroke-linejoin="round" stroke-width="1.5"/>
        </g>
        <g id="g3927" transform="translate(13.279 21.145)">
          <path id="path3929" d="M-154.418-240.725l-5.728,4.181a1.769,1.769,0,0,1-2.724-1.979l2.206-6.74-5.763-4.168a1.769,1.769,0,0,1,1.037-3.2h7.112l2.177-6.735a1.769,1.769,0,0,1,3.366,0l2.177,6.735h7.112a1.769,1.769,0,0,1,1.037,3.2l-5.763,4.168,2.206,6.74a1.769,1.769,0,0,1-2.724,1.979Z" transform="translate(167.163 260.593)" fill="none" stroke="#000" stroke-linecap="round" stroke-linejoin="round" stroke-width="1.5"/>
        </g>
        <g id="g3931" transform="translate(26.023 11.079)">
          <path id="path3933" d="M0-46.315v-3.822" transform="translate(0 50.137)" fill="none" stroke="#000" stroke-linecap="round" stroke-linejoin="round" stroke-width="1.5"/>
        </g>
        <g id="g3935" transform="translate(36.392 10.241)">
          <path id="path3937" d="M0-65.5,5.406-70.91" transform="translate(0 70.91)" fill="none" stroke="#000" stroke-linecap="round" stroke-linejoin="round" stroke-width="1.5"/>
        </g>
        <g id="g3939" transform="translate(10.248 10.241)">
          <path id="path3941" d="M-65.5-65.5-70.91-70.91" transform="translate(70.91 70.91)" fill="none" stroke="#000" stroke-linecap="round" stroke-linejoin="round" stroke-width="1.5"/>
        </g>
        <g id="g3943" transform="translate(26.03 6.505)">
          <path id="path3945" d="M0,0H0" fill="none" stroke="#000" stroke-linecap="round" stroke-linejoin="round" stroke-width="1.5"/>
        </g>
      </g>
    </g>
  </g>
</svg>
