<svg xmlns="http://www.w3.org/2000/svg" width="58.438" height="38.594" viewBox="0 0 58.438 38.594">
  <g id="Layer_3" transform="translate(-6.999 -15.489)" opacity="0.65">
    <g id="Group_47" data-name="Group 47" transform="translate(6.999 15.489)">
      <g id="ARC_424_" transform="translate(0 26.754)">
        <g id="Group_28" data-name="Group 28">
          <path id="Path_232" data-name="Path 232" d="M15.4,43.085a1.188,1.188,0,0,1-.168-.012,23.188,23.188,0,0,1-7.612-2.492,1.17,1.17,0,1,1,1.1-2.064,20.781,20.781,0,0,0,6.844,2.24,1.169,1.169,0,0,1-.165,2.327Z" transform="translate(-6.999 -38.381)" fill="#333"/>
        </g>
      </g>
      <g id="ARC_423_" transform="translate(48.871 26.755)">
        <g id="Group_29" data-name="Group 29">
          <path id="Path_233" data-name="Path 233" d="M49.983,43.085a1.169,1.169,0,0,1-.165-2.326,20.772,20.772,0,0,0,6.844-2.24,1.17,1.17,0,0,1,1.1,2.064,23.188,23.188,0,0,1-7.612,2.492A1.384,1.384,0,0,1,49.983,43.085Z" transform="translate(-48.815 -38.382)" fill="#333"/>
        </g>
      </g>
      <g id="ARC_422_" transform="translate(36.646 15.103)">
        <g id="Group_30" data-name="Group 30">
          <path id="Path_234" data-name="Path 234" d="M39.523,34.275a1.169,1.169,0,0,1-.978-1.807,8.908,8.908,0,0,1,7.486-4.057,1.169,1.169,0,1,1,0,2.337,6.572,6.572,0,0,0-5.527,3A1.166,1.166,0,0,1,39.523,34.275Z" transform="translate(-38.354 -28.412)" fill="#333"/>
        </g>
      </g>
      <g id="CIRCLE_38_" transform="translate(39.27 2.159)">
        <g id="Group_31" data-name="Group 31">
          <path id="Path_235" data-name="Path 235" d="M48.242,32.618a7.641,7.641,0,1,1,7.641-7.641A7.744,7.744,0,0,1,48.242,32.618Zm0-12.945a5.3,5.3,0,1,0,5.3,5.3A5.375,5.375,0,0,0,48.242,19.673Z" transform="translate(-40.6 -17.336)" fill="#333"/>
        </g>
      </g>
      <g id="ARC_421_" transform="translate(48.332 15.105)">
        <g id="Group_32" data-name="Group 32">
          <path id="Path_236" data-name="Path 236" d="M57.29,38.518a1.168,1.168,0,0,1-1.169-1.169,6.606,6.606,0,0,0-6.6-6.6,1.169,1.169,0,1,1,0-2.337,8.947,8.947,0,0,1,8.936,8.936A1.168,1.168,0,0,1,57.29,38.518Z" transform="translate(-48.354 -28.413)" fill="#333"/>
        </g>
      </g>
      <g id="LINE_818_" transform="translate(43.154 15.103)">
        <g id="Group_33" data-name="Group 33">
          <path id="Path_237" data-name="Path 237" d="M50.27,30.749H45.092a1.169,1.169,0,1,1,0-2.337H50.27a1.169,1.169,0,1,1,0,2.337Z" transform="translate(-43.923 -28.412)" fill="#333"/>
        </g>
      </g>
      <g id="LINE_817_" transform="translate(56.1 22.872)">
        <g id="Group_34" data-name="Group 34">
          <path id="Path_238" data-name="Path 238" d="M56.169,41.28A1.168,1.168,0,0,1,55,40.111V36.228a1.169,1.169,0,1,1,2.337,0v3.884a1.168,1.168,0,0,1-1.169,1.169Z" transform="translate(-55 -35.059)" fill="#333"/>
        </g>
      </g>
      <g id="ARC_420_" transform="translate(14.242 17.262)">
        <g id="Group_35" data-name="Group 35">
          <path id="Path_239" data-name="Path 239" d="M20.354,42.953a1.168,1.168,0,0,1-1.169-1.169A11.538,11.538,0,0,1,30.71,30.259a1.169,1.169,0,1,1,0,2.337,9.2,9.2,0,0,0-9.187,9.187A1.168,1.168,0,0,1,20.354,42.953Z" transform="translate(-19.185 -30.259)" fill="#333"/>
        </g>
      </g>
      <g id="LINE_816_" transform="translate(24.598 17.262)">
        <g id="Group_36" data-name="Group 36">
          <path id="Path_240" data-name="Path 240" d="M36.12,32.6h-6.9a1.169,1.169,0,1,1,0-2.337h6.9a1.169,1.169,0,1,1,0,2.337Z" transform="translate(-28.046 -30.259)" fill="#333"/>
        </g>
      </g>
      <g id="ARC_419_" transform="translate(12.948 15.103)">
        <g id="Group_37" data-name="Group 37">
          <path id="Path_241" data-name="Path 241" d="M25.754,34.275a1.169,1.169,0,0,1-.981-.531,6.577,6.577,0,0,0-5.527-3,1.169,1.169,0,1,1,0-2.337,8.906,8.906,0,0,1,7.486,4.057,1.169,1.169,0,0,1-.978,1.807Z" transform="translate(-18.078 -28.412)" fill="#333"/>
        </g>
      </g>
      <g id="LINE_815_" transform="translate(14.242 27.618)">
        <g id="Group_38" data-name="Group 38">
          <path id="Path_242" data-name="Path 242" d="M20.354,46.636a1.168,1.168,0,0,1-1.169-1.169V40.289a1.169,1.169,0,1,1,2.337,0v5.179A1.168,1.168,0,0,1,20.354,46.636Z" transform="translate(-19.185 -39.12)" fill="#333"/>
        </g>
      </g>
      <g id="CIRCLE_37_" transform="translate(19.419)">
        <g id="Group_39" data-name="Group 39" transform="translate(0)">
          <path id="Path_243" data-name="Path 243" d="M33.415,35.088a9.931,9.931,0,0,1-9.8-9.8,9.8,9.8,0,0,1,19.6,0A9.931,9.931,0,0,1,33.415,35.088Zm0-17.262a7.462,7.462,0,1,0,7.462,7.462A7.562,7.562,0,0,0,33.415,17.826Z" transform="translate(-23.615 -15.489)" fill="#333"/>
        </g>
      </g>
      <g id="ARC_418_" transform="translate(31.503 17.262)">
        <g id="Group_40" data-name="Group 40">
          <path id="Path_244" data-name="Path 244" d="M45.479,42.953a1.168,1.168,0,0,1-1.169-1.169A9.2,9.2,0,0,0,35.123,32.6a1.169,1.169,0,1,1,0-2.337A11.538,11.538,0,0,1,46.648,41.784,1.168,1.168,0,0,1,45.479,42.953Z" transform="translate(-33.954 -30.259)" fill="#333"/>
        </g>
      </g>
      <g id="LINE_814_" transform="translate(41.859 27.618)">
        <g id="Group_41" data-name="Group 41">
          <path id="Path_245" data-name="Path 245" d="M43.984,46.636a1.168,1.168,0,0,1-1.169-1.169V40.289a1.169,1.169,0,0,1,2.337,0v5.179A1.168,1.168,0,0,1,43.984,46.636Z" transform="translate(-42.815 -39.12)" fill="#333"/>
        </g>
      </g>
      <g id="ARC_417_" transform="translate(14.241 32.797)">
        <g id="Group_42" data-name="Group 42">
          <path id="Path_246" data-name="Path 246" d="M34.162,49.348a30.5,30.5,0,0,1-14.359-3.6,1.17,1.17,0,1,1,1.1-2.064,28.125,28.125,0,0,0,26.517,0,1.17,1.17,0,0,1,1.1,2.064,30.518,30.518,0,0,1-14.36,3.6Z" transform="translate(-19.184 -43.551)" fill="#333"/>
        </g>
      </g>
      <g id="CIRCLE_36_" transform="translate(3.885 2.159)">
        <g id="Group_43" data-name="Group 43">
          <path id="Path_247" data-name="Path 247" d="M17.964,32.618a7.641,7.641,0,1,1,0-15.282,7.641,7.641,0,1,1,0,15.282Zm0-12.945a5.3,5.3,0,1,0,5.3,5.3A5.374,5.374,0,0,0,17.964,19.673Z" transform="translate(-10.323 -17.336)" fill="#333"/>
        </g>
      </g>
      <g id="ARC_416_" transform="translate(0.001 15.105)">
        <g id="Group_44" data-name="Group 44">
          <path id="Path_248" data-name="Path 248" d="M8.169,38.518A1.168,1.168,0,0,1,7,37.349a8.947,8.947,0,0,1,8.936-8.936,1.169,1.169,0,1,1,0,2.337,6.6,6.6,0,0,0-6.6,6.6A1.168,1.168,0,0,1,8.169,38.518Z" transform="translate(-7 -28.413)" fill="#333"/>
        </g>
      </g>
      <g id="LINE_813_" transform="translate(7.768 15.103)">
        <g id="Group_45" data-name="Group 45">
          <path id="Path_249" data-name="Path 249" d="M19.993,30.749H14.815a1.169,1.169,0,1,1,0-2.337h5.179a1.169,1.169,0,1,1,0,2.337Z" transform="translate(-13.646 -28.412)" fill="#333"/>
        </g>
      </g>
      <g id="LINE_812_" transform="translate(0.001 22.872)">
        <g id="Group_46" data-name="Group 46">
          <path id="Path_250" data-name="Path 250" d="M8.169,41.28A1.168,1.168,0,0,1,7,40.111V36.228a1.169,1.169,0,1,1,2.337,0v3.884A1.168,1.168,0,0,1,8.169,41.28Z" transform="translate(-7 -35.059)" fill="#333"/>
        </g>
      </g>
    </g>
  </g>
</svg>
