<svg id="Group_78" data-name="Group 78" xmlns="http://www.w3.org/2000/svg" xmlns:xlink="http://www.w3.org/1999/xlink" width="12.035" height="12.055" viewBox="0 0 12.035 12.055">
  <defs>
    <clipPath id="clip-path">
      <rect id="Rectangle_156" data-name="Rectangle 156" width="12.035" height="12.055" fill="#333"/>
    </clipPath>
  </defs>
  <g id="Group_419" data-name="Group 419" clip-path="url(#clip-path)">
    <path id="Path_2310" data-name="Path 2310" d="M77.745,81.409a3.41,3.41,0,1,1,3.391,3.424,3.411,3.411,0,0,1-3.391-3.424" transform="translate(-75.141 -75.388)" fill="#333"/>
    <path id="Path_2311" data-name="Path 2311" d="M46.974,47.945a.634.634,0,0,1,.354-.608.553.553,0,0,1,.642.089c.219.2.428.411.63.629a.593.593,0,0,1-.013.81.584.584,0,0,1-.815.048,7.661,7.661,0,0,1-.653-.658,1.053,1.053,0,0,1-.145-.309" transform="translate(-45.401 -45.69)" fill="#333"/>
    <path id="Path_2312" data-name="Path 2312" d="M48.191,259.439a.631.631,0,0,1,.6.351.555.555,0,0,1-.084.644c-.2.223-.415.436-.637.64a.6.6,0,0,1-.845-.84,7.956,7.956,0,0,1,.649-.645,1.1,1.1,0,0,1,.312-.149" transform="translate(-45.506 -250.751)" fill="#333"/>
    <path id="Path_2313" data-name="Path 2313" d="M258.877,260.154a.629.629,0,0,1,.358-.619.548.548,0,0,1,.631.089c.222.2.435.417.638.638a.594.594,0,0,1-.023.81.584.584,0,0,1-.806.046,7.657,7.657,0,0,1-.654-.657,1.051,1.051,0,0,1-.146-.306" transform="translate(-250.208 -250.785)" fill="#333"/>
    <path id="Path_2314" data-name="Path 2314" d="M259,48.6a.6.6,0,0,1,.166-.438c.2-.2.4-.408.6-.6a.591.591,0,0,1,.826.019.6.6,0,0,1,.009.838c-.192.2-.39.4-.594.594a.561.561,0,0,1-.65.113A.575.575,0,0,1,259,48.6" transform="translate(-250.331 -45.814)" fill="#333"/>
    <path id="Path_2315" data-name="Path 2315" d="M162.8,301.029c0,.134,0,.268,0,.4a.605.605,0,0,1-.607.6.6.6,0,0,1-.594-.615q0-.389,0-.778a.6.6,0,1,1,1.2-.014c0,.134,0,.268,0,.4" transform="translate(-156.187 -289.979)" fill="#333"/>
    <path id="Path_2316" data-name="Path 2316" d="M161.624,1c0-.134,0-.268,0-.4a.6.6,0,0,1,1.2-.025c.012.284.012.569,0,.853a.6.6,0,0,1-1.2-.037c0-.13,0-.259,0-.389" transform="translate(-156.211 0)" fill="#333"/>
    <path id="Path_2317" data-name="Path 2317" d="M300.514,163.162c-.134,0-.267,0-.4,0a.6.6,0,0,1,0-1.2c.276-.005.551,0,.826,0a.6.6,0,0,1,0,1.2c-.142,0-.284,0-.426,0" transform="translate(-289.492 -156.532)" fill="#333"/>
    <path id="Path_2318" data-name="Path 2318" d="M1,163.172c-.138,0-.275,0-.413,0a.6.6,0,0,1,0-1.2c.271,0,.543,0,.814,0a.6.6,0,0,1,.008,1.2c-.138,0-.275,0-.413,0" transform="translate(0 -156.542)" fill="#333"/>
  </g>
</svg>
