<svg xmlns="http://www.w3.org/2000/svg" width="32.389" height="49.536" viewBox="0 0 32.389 49.536">
  <g id="surface1" transform="translate(0)" opacity="0.5">
    <path id="Path_7322" data-name="Path 7322" d="M1.185,43.868H6.043V15.528a.81.81,0,0,1,1.278-.661l3.112,2.2.424-1.307L3.632,10.515A.81.81,0,0,1,4.108,9.05H13.04L15.8.557a.81.81,0,0,1,1.539,0L20.1,9.05H29.03a.81.81,0,0,1,.476,1.465l-7.225,5.249,2.759,8.493a.809.809,0,0,1-1.246.906l-7.225-5.249-1.053.764,11.237,7.955a.81.81,0,0,1,.342.661V43.868h4.858a.81.81,0,0,1,.81.81v4.049a.81.81,0,0,1-.81.81H1.185a.81.81,0,0,1-.81-.81V44.677A.81.81,0,0,1,1.185,43.868ZM16.569,18.1a.808.808,0,0,1,.476.155l5.684,4.13L20.558,15.7a.81.81,0,0,1,.294-.9l5.685-4.13H19.511a.809.809,0,0,1-.77-.559L16.569,3.427,14.4,10.11a.809.809,0,0,1-.769.559H6.6l5.685,4.13a.809.809,0,0,1,.294.9l-2.171,6.683,5.685-4.13A.806.806,0,0,1,16.569,18.1Zm8.907,11.609-11.342-8.03-4.79,3.481a.809.809,0,0,1-1.246-.9l1.811-5.573L7.662,17.093V43.868H25.476ZM1.994,47.916h29.15V45.487H1.994Zm0,0" transform="translate(-0.375)"/>
  </g>
</svg>
