<svg xmlns="http://www.w3.org/2000/svg" width="69.417" height="69.417" viewBox="0 0 69.417 69.417">
  <g id="teamwork" opacity="0.72">
    <g id="Group_15" data-name="Group 15" transform="translate(0 29.557)">
      <g id="Group_14" data-name="Group 14">
        <path id="Path_116" data-name="Path 116" d="M61.2,236.365a8.406,8.406,0,1,0-10.14,0,13.253,13.253,0,0,0-4.486,3.053,13.368,13.368,0,0,0-6.8-6.3,8.406,8.406,0,1,0-10.138,0,13.368,13.368,0,0,0-6.8,6.3,13.251,13.251,0,0,0-4.486-3.053,8.406,8.406,0,1,0-10.14,0A13.307,13.307,0,0,0,0,248.646v7.864a1.356,1.356,0,0,0,1.356,1.356H68.061a1.356,1.356,0,0,0,1.356-1.356v-7.864A13.307,13.307,0,0,0,61.2,236.365Zm-53.607-6.7a5.694,5.694,0,1,1,5.694,5.694A5.7,5.7,0,0,1,7.592,229.665Zm13.829,15.728v9.761H2.712v-6.508a10.573,10.573,0,0,1,19.064-6.3A13.277,13.277,0,0,0,21.422,245.393Zm7.592-18.981a5.694,5.694,0,1,1,5.694,5.694A5.7,5.7,0,0,1,29.014,226.412Zm16.27,28.742H42.595V250.88a1.356,1.356,0,1,0-2.712,0v4.274H24.133v-9.761a10.575,10.575,0,0,1,21.151,0Zm5.152-25.489a5.694,5.694,0,1,1,5.694,5.694A5.7,5.7,0,0,1,50.436,229.665Zm16.27,25.489H48v-9.761a13.277,13.277,0,0,0-.354-3.05,10.573,10.573,0,0,1,19.064,6.3Z" transform="translate(0 -218.006)" fill="#471f12"/>
      </g>
    </g>
    <g id="Group_17" data-name="Group 17" transform="translate(41.174 3.779)">
      <g id="Group_16" data-name="Group 16">
        <path id="Path_117" data-name="Path 117" d="M310.653,28.269a1.356,1.356,0,0,0-1.918,0l-4.652,4.652A1.356,1.356,0,0,0,306,34.839l4.652-4.652A1.356,1.356,0,0,0,310.653,28.269Z" transform="translate(-303.686 -27.872)" fill="#471f12"/>
      </g>
    </g>
    <g id="Group_19" data-name="Group 19" transform="translate(20.879 3.779)">
      <g id="Group_18" data-name="Group 18">
        <path id="Path_118" data-name="Path 118" d="M160.965,32.922l-4.652-4.652a1.356,1.356,0,0,0-1.918,1.918l4.652,4.652a1.356,1.356,0,0,0,1.917-1.918Z" transform="translate(-153.998 -27.872)" fill="#471f12"/>
      </g>
    </g>
    <g id="Group_21" data-name="Group 21" transform="translate(33.353)">
      <g id="Group_20" data-name="Group 20">
        <path id="Path_119" data-name="Path 119" d="M247.356,0A1.356,1.356,0,0,0,246,1.356V4.269a1.356,1.356,0,1,0,2.712,0V1.356A1.356,1.356,0,0,0,247.356,0Z" transform="translate(-246)" fill="#471f12"/>
      </g>
    </g>
    <g id="Group_23" data-name="Group 23" transform="translate(24.074 7.66)">
      <g id="Group_22" data-name="Group 22">
        <path id="Path_120" data-name="Path 120" d="M198.732,64.154a1.99,1.99,0,0,0-1.617-1.363l-4.922-.715-2.2-4.46a2,2,0,0,0-3.592,0l-2.2,4.46-4.921.715a2,2,0,0,0-1.11,3.416l3.561,3.471-.841,4.9a2,2,0,0,0,2.906,2.111l4.4-2.314,4.4,2.314A2,2,0,0,0,195.5,74.58l-.841-4.9,3.561-3.471A1.99,1.99,0,0,0,198.732,64.154ZM192.5,68a2,2,0,0,0-.576,1.773l.661,3.853-3.46-1.819a2,2,0,0,0-1.864,0l-3.46,1.819.661-3.853A2,2,0,0,0,183.889,68l-2.8-2.729,3.869-.562a2,2,0,0,0,1.508-1.1L188.2,60.1l1.881,3.811a1.356,1.356,0,0,0,1.02.742l4.206.611Z" transform="translate(-177.562 -56.5)" fill="#471f12"/>
      </g>
    </g>
    <g id="Group_25" data-name="Group 25" transform="translate(39.884 55.797)">
      <g id="Group_24" data-name="Group 24">
        <path id="Path_121" data-name="Path 121" d="M296.484,411.936a1.357,1.357,0,1,0,.4.96A1.367,1.367,0,0,0,296.484,411.936Z" transform="translate(-294.17 -411.54)" fill="#471f12"/>
      </g>
    </g>
  </g>
</svg>
