<?xml version="1.0" encoding="utf-8"?>
<!-- Generator: Adobe Illustrator 27.9.0, SVG Export Plug-In . SVG Version: 6.00 Build 0)  -->
<svg version="1.1" id="Layer_1" xmlns="http://www.w3.org/2000/svg" xmlns:xlink="http://www.w3.org/1999/xlink" x="0px" y="0px"
	 viewBox="0 0 177 196.7" style="enable-background:new 0 0 177 196.7;" xml:space="preserve">
<style type="text/css">
	.st0{fill:#D15642;}
	.st1{opacity:0.1;fill:#FFB264;enable-background:new    ;}
</style>
<g id="term-condition" transform="translate(-1004.032 -563.009)">
	<g id="terms-and-conditions" transform="translate(1012.436 553.009)">
		<path id="Path_13464" class="st0" d="M63.7,100.1h3.9c1,0,1.8-0.8,1.8-1.8s-0.8-1.8-1.8-1.8h-3.9c-1,0-1.8,0.8-1.8,1.8
			S62.7,100.1,63.7,100.1z"/>
		<path id="Path_13465" class="st0" d="M76.5,96.5c-1,0-1.8,0.8-1.8,1.8s0.8,1.8,1.8,1.8h3.9c1,0,1.8-0.8,1.8-1.8s-0.8-1.8-1.8-1.8
			H76.5z"/>
		<path id="Path_13466" class="st0" d="M88,96.5c-1,0-1.8,0.8-1.8,1.8s0.8,1.8,1.8,1.8h3.9c1,0,1.8-0.8,1.8-1.8s-0.8-1.8-1.8-1.8
			l0,0H88z"/>
		<path id="Path_13467" class="st0" d="M122.1,96.5H99.6c-1,0-1.8,0.8-1.8,1.8s0.8,1.8,1.8,1.8h22.6c1,0,1.8-0.8,1.8-1.8
			S123.1,96.5,122.1,96.5L122.1,96.5z"/>
		<path id="Path_13468" class="st0" d="M63.7,56.9h9.1c1,0,1.8-0.8,1.8-1.8s-0.8-1.8-1.8-1.8h-9.1c-1,0-1.8,0.8-1.8,1.8
			S62.7,56.9,63.7,56.9z"/>
		<path id="Path_13469" class="st0" d="M122.1,56.9c1,0,1.8-0.8,1.8-1.8s-0.8-1.8-1.8-1.8H110c-1,0-1.8,0.8-1.8,1.8s0.8,1.8,1.8,1.8
			H122.1z"/>
		<path id="Path_13470" class="st0" d="M101.6,56.9c1,0,1.8-0.8,1.8-1.8s-0.8-1.8-1.8-1.8l0,0H81c-1,0-1.8,0.8-1.8,1.8
			s0.8,1.8,1.8,1.8H101.6z"/>
		<path id="Path_13471" class="st0" d="M63.7,123.2h26.2c1,0,1.8-0.8,1.8-1.8s-0.8-1.8-1.8-1.8H63.7c-1,0-1.8,0.8-1.8,1.8
			S62.7,123.2,63.7,123.2z"/>
		<path id="Path_13472" class="st0" d="M63.7,107.2h44.6c1,0,1.8-0.8,1.8-1.8s-0.8-1.8-1.8-1.8H63.7c-1,0-1.8,0.8-1.8,1.8
			S62.7,107.2,63.7,107.2z"/>
		<path id="Path_13473" class="st0" d="M63.7,62.9h23.1c1,0,1.8-0.8,1.8-1.8s-0.8-1.8-1.8-1.8H63.7c-1,0-1.8,0.8-1.8,1.8
			S62.7,62.9,63.7,62.9z"/>
		<path id="Path_13474" class="st0" d="M63.7,116.1h57.9c1,0,1.8-0.8,1.8-1.8s-0.8-1.8-1.8-1.8H63.7c-1,0-1.8,0.8-1.8,1.8
			S62.7,116.1,63.7,116.1z"/>
		<path id="Path_13475" class="st0" d="M63.7,69.1h46.1c1,0,1.8-0.8,1.8-1.8s-0.8-1.8-1.8-1.8H63.7c-1,0-1.8,0.8-1.8,1.8
			S62.7,69.1,63.7,69.1z"/>
		<path id="Path_13476" class="st0" d="M44.6,61.8c0.7,0.7,1.9,0.7,2.6,0l9.5-9.5c0.8-0.7,0.8-1.8,0.1-2.6s-1.8-0.8-2.6-0.1
			c0,0-0.1,0.1-0.1,0.1l-8.2,8.2l-2-2c-0.7-0.8-1.8-0.8-2.6-0.1c-0.8,0.7-0.8,1.8-0.1,2.6c0,0,0.1,0.1,0.1,0.1L44.6,61.8z"/>
		<path id="Path_13477" class="st0" d="M41.3,75.2l3.3,3.3c0.7,0.7,1.9,0.7,2.6,0l9.5-9.5c0.8-0.7,0.8-1.8,0.1-2.6s-1.8-0.8-2.6-0.1
			c0,0-0.1,0.1-0.1,0.1l-8.2,8.2l-2-2c-0.7-0.8-1.8-0.8-2.6-0.1c-0.8,0.7-0.8,1.8-0.1,2.6C41.3,75.1,41.3,75.2,41.3,75.2L41.3,75.2z
			"/>
		<path id="Path_13478" class="st0" d="M41.3,103.4l3.3,3.3c0.7,0.7,1.9,0.7,2.6,0l9.5-9.5c0.8-0.7,0.8-1.8,0.1-2.6
			s-1.8-0.8-2.6-0.1c0,0-0.1,0.1-0.1,0.1l-8.2,8.2l-2-2c-0.7-0.8-1.8-0.8-2.6-0.1c-0.8,0.7-0.8,1.8-0.1,2.6
			C41.3,103.3,41.3,103.4,41.3,103.4L41.3,103.4z"/>
		<path id="Path_13479" class="st0" d="M41.3,120.1l3.3,3.3c0.7,0.7,1.9,0.7,2.6,0l9.5-9.5c0.8-0.7,0.8-1.8,0.1-2.6
			s-1.8-0.8-2.6-0.1c0,0-0.1,0.1-0.1,0.1l-8.2,8.2l-2-2c-0.7-0.8-1.8-0.8-2.6-0.1c-0.8,0.7-0.8,1.8-0.1,2.6
			C41.3,120.1,41.3,120.1,41.3,120.1L41.3,120.1z"/>
		<path id="Path_13480" class="st0" d="M59.8,147.7c0.7,0.7,1.9,0.7,2.6,0l5.2-5.2l4.9,5.2c0.5,0.5,1.1,0.7,1.8,0.5l4.1-1l2.6,0.9
			c0.2,0.1,0.4,0.1,0.6,0.1h6.8c0.7,0,1.3-0.3,1.6-0.9l1.9-3.3l0.7,7.3c0.1,1,1,1.7,2,1.6c0.4,0,0.8-0.2,1.1-0.5l4.9-4.9h12
			c1,0,1.8-0.8,1.8-1.8s-0.8-1.8-1.8-1.8H99.9c-0.5,0-1,0.2-1.3,0.5l-2.7,2.7L95,138c-0.1-1-1-1.7-2-1.6c-0.6,0.1-1.1,0.4-1.4,0.9
			l-4.2,7.3h-5.4l-2.9-1c-0.3-0.1-0.7-0.1-1.1-0.1l-3.6,0.9l-5.5-5.8c-0.3-0.4-0.8-0.6-1.3-0.6h0c-0.5,0-1,0.2-1.3,0.5l-6.6,6.5
			C59,145.8,59,147,59.8,147.7z"/>
		<path id="Path_13481" class="st0" d="M63.7,75.2h58.4c1,0,1.8-0.8,1.8-1.8s-0.8-1.8-1.8-1.8H63.7c-1,0-1.8,0.8-1.8,1.8
			S62.7,75.2,63.7,75.2z"/>
		<path id="Path_13482" class="st0" d="M94.7,17.4H76.2c-1,0-1.8,0.8-1.8,1.8s0.8,1.8,1.8,1.8h18.5c1,0,1.8-0.8,1.8-1.8
			S95.7,17.4,94.7,17.4z"/>
		<path id="Path_13483" class="st0" d="M67.8,17.4h-2.9c-1,0-1.8,0.8-1.8,1.8s0.8,1.8,1.8,1.8h2.9c1,0,1.8-0.8,1.8-1.8
			S68.8,17.4,67.8,17.4z"/>
		<path id="Path_13484" class="st0" d="M154.6,95.1l-17.8,17.8V35c0-5-4.1-9.1-9.1-9.1l0,0H109v-6.4c0-5.3-4.3-9.5-9.5-9.5
			c0,0,0,0,0,0H67c-5.3,0-9.5,4.3-9.5,9.5v6.4H38.7c-5,0-9.1,4.1-9.1,9.1c0,0,0,0,0,0v10.5c0,1,0.8,1.8,1.8,1.8c1,0,1.8-0.8,1.8-1.8
			c0,0,0,0,0,0V35c0-3,2.4-5.4,5.4-5.4l0,0h18.8v2.1c0,1,0.8,1.8,1.8,1.8l0,0h47.8c1,0,1.8-0.8,1.8-1.8c0,0,0,0,0,0v-2.1h18.8
			c3,0,5.4,2.4,5.4,5.4v81.5l-7.3,7.3c-3,3-5.1,6.9-6,11.1l-0.5,2.2c-3.8,3.9-3.4,6-2.3,7c0.5,0.5,1.1,0.7,1.8,0.7
			c0.7,0,1.4-0.2,2.1-0.6c1.2-0.7,2.3-1.5,3.2-2.4l2.3-0.5c2.4-0.5,4.7-1.4,6.8-2.7v13.2c0,3-2.4,5.4-5.4,5.4c0,0,0,0,0,0H38.7
			c-3,0-5.4-2.4-5.4-5.4V60.9c0-1-0.8-1.8-1.8-1.8c-1,0-1.8,0.8-1.8,1.8c0,0,0,0,0,0v91.1c0,5,4.1,9.1,9.1,9.1c0,0,0,0,0,0h89.1
			c5,0,9.1-4.1,9.1-9.1l0,0v-16c0.2-0.2,0.4-0.4,0.6-0.5l28.8-28.8c3.2-3.2,3.2-8.4,0-11.6C163,91.9,157.8,91.9,154.6,95.1
			L154.6,95.1z M105.3,29.9H61.2V19.5c0-3.2,2.6-5.9,5.9-5.9h32.4c3.2,0,5.9,2.6,5.9,5.9L105.3,29.9z M125.6,137.8l-2.7,0.6l0.6-2.7
			c0.5-2.6,1.7-5.1,3.2-7.2l6.1,6.1C130.6,136.2,128.2,137.3,125.6,137.8L125.6,137.8z M135.5,132.1l-6.4-6.4l15.4-15.4l6.4,6.4
			L135.5,132.1z M153.5,114.1l-6.4-6.4l7.1-7.1l6.4,6.4L153.5,114.1z M163.6,104l-0.3,0.3l-6.4-6.4l0.3-0.3c1.8-1.8,4.6-1.8,6.4,0
			C165.3,99.4,165.3,102.3,163.6,104z"/>
	</g>
	<circle id="Ellipse_165" class="st1" cx="1083.8" cy="680" r="79.8"/>
</g>
</svg>
